<svg xmlns="http://www.w3.org/2000/svg" fill="none" viewBox="0 0 329 329">
	<rect width="329" height="329" fill="#DC1E26" rx="68" />
	<path fill="#fff"
		d="M123.386 126.59c-6.947 7.085-15.999 12.065-26.1334 13.909l32.2514 64.892c6.421-7.707 15.128-13.411 25.069-16.05l-31.187-62.751Zm80.602 77.956c-6.567-7.534-15.369-13.039-25.361-15.462l30.066-60.494c7.317 6.642 16.625 11.096 26.912 12.342l-31.617 63.614Zm-8.499-129.9804h-60.978c1.975 5.3647 3.054 11.1685 3.054 17.2265 0 4.341-.554 8.5519-1.595 12.5639h58.06c-1.041-4.012-1.595-8.2229-1.595-12.5639 0-6.058 1.079-11.8618 3.054-17.2265ZM279 91.7921c0 20.8719-16.78 37.7919-37.479 37.7919-20.7 0-37.48-16.92-37.48-37.7919 0-20.872 16.78-37.7921 37.48-37.7921C262.22 54 279 70.9201 279 91.7921Zm-153.041 0c0 20.8719-16.78 37.7919-37.4795 37.7919C67.7801 129.584 51 112.664 51 91.7921 51 70.9201 67.7801 54 88.4795 54c20.6995 0 37.4795 16.9201 37.4795 37.7921Zm78.627 145.4159c0 20.872-16.781 37.792-37.48 37.792-20.699 0-37.479-16.92-37.479-37.792s16.78-37.792 37.479-37.792c20.699 0 37.48 16.92 37.48 37.792Z" />
</svg>